<?xml version="1.0" standalone="no"?>
<!DOCTYPE svg PUBLIC "-//W3C//DTD SVG 20010904//EN"
 "http://www.w3.org/TR/2001/REC-SVG-20010904/DTD/svg10.dtd">
<svg version="1.0" xmlns="http://www.w3.org/2000/svg"
 width="512.000000pt" height="512.000000pt" viewBox="0 0 512.000000 512.000000"
 preserveAspectRatio="xMidYMid meet">

<g transform="translate(0.000000,512.000000) scale(0.100000,-0.100000)"
fill="#000000" stroke="none">
<path d="M0 2560 l0 -2560 2560 0 2560 0 0 2560 0 2560 -2560 0 -2560 0 0
-2560z m2800 2085 c52 -9 129 -25 170 -36 71 -20 179 -65 190 -79 3 -3 26 -20
51 -38 91 -61 139 -136 139 -213 0 -47 -19 -119 -32 -119 -4 0 -8 -6 -8 -13 0
-13 -61 -68 -112 -101 -26 -17 -30 -17 -125 7 -54 14 -133 30 -176 37 -43 7
-76 15 -73 17 2 2 31 11 65 19 119 27 261 109 261 150 0 41 -166 127 -297 154
-112 23 -556 25 -680 4 -205 -36 -403 -137 -403 -207 0 -53 165 -122 307 -128
84 -4 85 -10 3 -30 -41 -11 -123 -39 -183 -63 l-110 -45 -49 25 c-145 74 -208
219 -150 344 64 139 285 258 567 304 50 8 101 17 115 19 71 12 442 6 530 -8z
m-936 -950 c47 -51 37 -93 -43 -175 -22 -23 -43 -49 -46 -59 -19 -62 -187 -55
-223 10 -9 16 -20 29 -24 29 -14 0 -8 47 7 60 8 7 15 19 15 26 0 8 27 27 61
44 34 16 66 34 73 39 19 16 109 50 134 50 13 1 33 -10 46 -24z m-1054 -316
c-12 -22 -15 -147 -4 -181 9 -29 43 -67 85 -93 34 -22 59 -65 37 -65 -5 0 -6
-5 -2 -12 13 -21 -95 0 -142 27 -74 43 -122 147 -102 222 9 35 85 106 105 99
7 -3 12 -2 12 2 -3 15 1 22 11 22 7 0 7 -7 0 -21z m274 -365 c3 -8 10 -12 16
-9 6 4 18 -11 26 -31 14 -33 14 -51 5 -123 -6 -46 -17 -91 -25 -100 -7 -9 -17
-45 -20 -81 -4 -36 -18 -113 -31 -172 -12 -60 -21 -108 -18 -108 3 0 0 -6 -6
-13 -6 -8 -8 -17 -5 -20 4 -3 3 -14 -1 -24 -4 -10 -9 -36 -11 -58 -3 -39 -25
-132 -39 -167 -3 -9 -7 -146 -8 -306 -1 -201 -6 -293 -14 -303 -10 -13 -36
-92 -48 -148 -14 -64 -28 -106 -55 -166 -19 -42 -23 -66 -22 -150 1 -55 5
-116 9 -135 7 -28 5 -38 -11 -54 -11 -11 -27 -20 -35 -21 -9 0 -22 -4 -28 -8
-20 -13 -33 28 -33 100 1 52 11 100 46 208 98 306 111 375 123 641 26 569 50
723 177 1148 16 55 16 61 1 88 -9 15 -12 28 -8 28 5 0 12 -7 15 -16z m2130
-550 c10 -27 7 -99 -6 -112 -21 -21 -38 7 -38 63 0 28 3 55 7 58 11 12 31 7
37 -9z m105 -44 c13 -40 12 -44 -4 -57 -23 -16 -31 -6 -40 49 -12 72 21 78 44
8z m125 18 c11 -43 7 -88 -8 -88 -20 0 -25 10 -32 64 -6 42 -5 46 13 46 13 0
23 -9 27 -22z m-1802 -57 c14 -53 7 -96 -17 -96 -17 0 -21 8 -25 57 -3 32 -4
62 -2 68 8 22 36 4 44 -29z m-102 -47 c0 -57 -2 -64 -20 -64 -18 0 -20 7 -20
63 0 68 4 79 26 70 10 -4 14 -23 14 -69z m198 18 c2 -32 -1 -44 -13 -48 -24
-10 -33 6 -27 54 3 33 8 42 21 40 11 -2 17 -16 19 -46z"/>
<path d="M931 2144 c0 -11 3 -14 6 -6 3 7 2 16 -1 19 -3 4 -6 -2 -5 -13z"/>
<path d="M931 1934 c0 -11 3 -14 6 -6 3 7 2 16 -1 19 -3 4 -6 -2 -5 -13z"/>
<path d="M851 1323 c-1 -12 4 -25 9 -28 12 -7 12 2 0 30 -8 19 -9 19 -9 -2z"/>
<path d="M831 1244 c0 -11 3 -14 6 -6 3 7 2 16 -1 19 -3 4 -6 -2 -5 -13z"/>
<path d="M755 880 c-3 -6 1 -7 9 -4 18 7 21 14 7 14 -6 0 -13 -4 -16 -10z"/>
</g>
</svg>
